{"title":"Kick Ass 2 2013 CAM V2 XviD-TANGiNA","uid":8827832,"size":783973476,"categoryP":"video","categoryS":"movies","magnet":"?xt=urn:btih:1d0aa7b0dfd775f6c733a90fc0bdf1ed1b0a1648&amp;dn=Kick+Ass+2+2013+CAM+V2+XviD-TANGiNA&amp;tr=udp%3A%2F%2Ftracker.openbittorrent.com%3A80&amp;tr=udp%3A%2F%2Fopen.demonii.com%3A1337&amp;tr=udp%3A%2F%2Ftracker.coppersurfer.tk%3A6969&amp;tr=udp%3A%2F%2Fexodus.desync.com%3A6969","seeders":4,"leechers":0,"uploader":"TeX","files":4,"time":1376890732,"description":"Kick.Ass.2.2013.CAM.V2.XviD-TANGiNA\n\n[img]http://s23.postimg.org/gbvo91h0b/Kick_Ass_2_2013_Movie_Poster.jpg[/img]\n\nGeneral\nComplete name : Kick.Ass.2.2013.CAM.V2.XviD-TANGiNA\nFormat : AVI\nFormat/Info : Audio Video Interleave\nFile size : 744 MiB\nDuration : 1h 40mn\nOverall bit rate : 1 036 Kbps\nWriting application : VirtualDubMod 1.5.10.2 (build 2542/release)\nWriting library : VirtualDubMod build 2542/release\n\nVideo\nID : 0\nFormat : MPEG-4 Visual\nFormat profile : Advanced Simple@L5\nFormat settings, BVOP : 2\nFormat settings, QPel : No\nFormat settings, GMC : No warppoints\nFormat settings, Matrix : Default (H.263)\nCodec ID : XVID\nCodec ID/Hint : XviD\nDuration : 1h 40mn\nBit rate : 899 Kbps\nWidth : 640 pixels\nHeight : 320 pixels\nDisplay aspect ratio : 2.000\nFrame rate : 24.000 fps\nColor space : YUV\nChroma subsampling : 4:2:0\nBit depth : 8 bits\nScan type : Progressive\nCompression mode : Lossy\nBits/(Pixel*Frame) : 0.183\nStream size : 645 MiB (87%)\nWriting library : XviD 1.2.1 (UTC 2008-12-04)\n\nAudio\nID : 1\nFormat : MPEG Audio\nFormat version : Version 1\nFormat profile : Layer 3\nCodec ID : 55\nCodec ID/Hint : MP3\nDuration : 1h 40mn\nBit rate mode : Constant\nBit rate : 128 Kbps\nChannel(s) : 2 channels\nSampling rate : 44.1 KHz\nCompression mode : Lossy\nStream size : 91.9 MiB (12%)\nAlignment : Split accross interleaves\nInterleave, duration : 42 ms (1.00 video frame)\nInterleave, preload duration : 500 ms\n\nSource : RAVERS/Kick-ass 2 English Audio ONLY (THANKS)\n\n[img]http://s8.postimg.org/rgwcvzxf9/7878721141.png[/img]\n\n[img]http://s8.postimg.org/py0yr0qut/414141400.png[/img]\n\n[img]http://s8.postimg.org/fch3f0kj9/7175721.png[/img]\n\n[img]http://s8.postimg.org/624zbh9th/4175575.png[/img]\n\n[img]http://s8.postimg.org/41efqndo5/772721.png[/img]\n\n[img]http://s8.postimg.org/p0uji5fcl/414727.png[/img]\n","torrent":{"xt":"urn:btih:1d0aa7b0dfd775f6c733a90fc0bdf1ed1b0a1648","amp;dn":"Kick+Ass+2+2013+CAM+V2+XviD-TANGiNA","amp;tr":["udp%3A%2F%2Ftracker.openbittorrent.com%3A80","udp%3A%2F%2Fopen.demonii.com%3A1337","udp%3A%2F%2Ftracker.coppersurfer.tk%3A6969","udp%3A%2F%2Fexodus.desync.com%3A6969"],"infoHash":"1d0aa7b0dfd775f6c733a90fc0bdf1ed1b0a1648","infoHashBuffer":{"type":"Buffer","data":[29,10,167,176,223,215,117,246,199,51,169,15,192,189,241,237,27,10,22,72]},"announce":[],"urlList":[]}}